:SAMPLES-PER-SECOND 30
:FRAME-RANGE 1-663
:FULLY-SPECIFIED
:DEGREES
415
root  -17.7758 38.9596 -11.851 178.544 24.0025 174.954
RightUpLeg  23.7621 -12.8088 -18.4659
RightLeg  -4.46865 -21.8486 12.1213
RightFoot  -11.082 -0.0991432 10.4283
RightToes  -3.4386e-010 1.2921e-014 -6.02303e-014
Spine  -22.4648 -8.1386 10.4313
Spine1  27.1001 -4.28294 -18.932
HEad  11.9489 23.7459 -9.71214
LeftShoulder1  0.926757 -0.339132 -19.1504
LeftArm  -10.3419 10.4168 -45.3976
LeftForeArm  7.62219 -55.3468 -15.7872
LeftHand  0.176404 1.89102 -6.31563
RightShoulder  1.50452 1.93601 22.4721
RightArm  5.10826 2.54273 51.2468
RightForeArm  22.1029 56.748 15.3493
RightHand  1.75142 7.42338 15.3584
LeftUpLeg  -21.8873 -6.45284 -3.00513
LeftLeg  7.28547 25.2032 12.1839
LeftFoot  -6.41792 0.393809 -8.25688
LeftToes  -7.12384e-010 -7.51861e-011 -8.34901e-011
416
root  -17.7139 38.7523 -12.8251 178.241 22.3611 175.273
RightUpLeg  25.8959 -12.3382 -18.5294
RightLeg  -3.93153 -22.8202 11.1184
RightFoot  -10.8134 -0.136258 13.5016
RightToes  -3.4386e-010 1.2921e-014 -6.02303e-014
Spine  -21.509 -7.17075 9.95837
Spine1  27.6146 -3.47952 -17.8472
HEad  10.9275 22.2668 -9.97215
LeftShoulder1  0.783535 0.221027 -19.1203
LeftArm  -9.94967 10.4111 -45.5561
LeftForeArm  7.9421 -55.9358 -16.1406
LeftHand  0.164437 1.88489 -5.89987
RightShoulder  1.54515 2.17026 21.9624
RightArm  4.8675 2.45529 51.1847
RightForeArm  21.2734 56.7333 15.4198
RightHand  1.53976 7.77747 13.1003
LeftUpLeg  -20.6187 -5.36041 -3.42497
LeftLeg  6.5117 26.1989 10.6655
LeftFoot  -6.50988 0.367674 -7.78347
LeftToes  -7.12384e-010 -7.51861e-011 -8.34901e-011
417
root  -17.7065 38.6218 -13.8677 177.672 20.9768 175.077
RightUpLeg  27.8012 -12.6325 -19.638
RightLeg  -2.43534 -22.4471 9.43393
RightFoot  -9.95401 -0.28834 18.0493
RightToes  -3.4386e-010 1.2921e-014 -6.02303e-014
Spine  -20.2846 -6.29482 8.74256
Spine1  27.6524 -2.78111 -16.9736
HEad  10.3314 21.1999 -9.44199
LeftShoulder1  0.684197 0.62038 -19.2033
LeftArm  -9.86943 11.0671 -45.6465
LeftForeArm  8.78519 -56.9223 -16.7328
LeftHand  0.151367 2.05518 -5.78034
RightShoulder  1.62356 2.50574 21.6755
RightArm  4.6486 2.03859 50.8158
RightForeArm  20.2334 56.4794 15.3548
RightHand  1.09132 7.10704 9.72671
LeftUpLeg  -19.3081 -5.16418 -4.71502
LeftLeg  7.8411 24.2638 10.3238
LeftFoot  -5.62796 0.438109 -8.09552
LeftToes  -7.12384e-010 -7.51861e-011 -8.34901e-011
418
root  -17.7291 38.5458 -14.9931 177.015 19.6846 174.482
RightUpLeg  28.8586 -16.5538 -23.2262
RightLeg  2.2571 -17.106 5.49283
RightFoot  -9.1326 -0.491627 21.9971
RightToes  -3.4386e-010 1.2921e-014 -6.02303e-014
Spine  -18.6683 -5.63241 6.59829
Spine1  26.8641 -2.45891 -15.4433
HEad  10.136 19.6906 -8.88709
LeftShoulder1  0.547866 1.1951 -19.7175
LeftArm  -9.59594 11.9806 -45.4806
LeftForeArm  9.69255 -57.9334 -17.375
LeftHand  0.130199 2.2598 -5.41191
RightShoulder  1.64074 2.56304 21.6988
RightArm  4.72481 1.40344 50.0877
RightForeArm  19.3452 56.417 15.3994
RightHand  0.590036 5.51705 5.94443
LeftUpLeg  -18.0719 -5.44278 -6.20571
LeftLeg  8.29955 22.2161 9.92107
LeftFoot  -1.24253 0.621908 -6.94984
LeftToes  -7.12384e-010 -7.51861e-011 -8.34901e-011
419
root  -17.7485 38.6076 -16.1238 177.135 18.2594 173.951
RightUpLeg  27.97 -21.6932 -26.2482
RightLeg  8.57476 -10.9272 -0.0236984
RightFoot  -6.99987 -1.12881 27.9738
RightToes  -3.4386e-010 1.2921e-014 -6.02303e-014
Spine  -17.0037 -4.79877 4.53695
Spine1  24.8211 -2.22452 -13.4756
HEad  10.6396 17.7832 -8.43868
LeftShoulder1  0.453011 1.61647 -20.6408
LeftArm  -8.60389 12.4722 -44.5756
LeftForeArm  9.74831 -58.2677 -17.6208
LeftHand  0.126155 2.42405 -5.59701
RightShoulder  1.66717 2.62727 21.854
RightArm  3.63462 0.165373 49.5621
RightForeArm  18.7024 55.7822 15.0566
RightHand  0.26905 3.41992 3.29927
LeftUpLeg  -17.8863 -3.62327 -6.79177
LeftLeg  9.90166 18.9158 7.3805
LeftFoot  -0.828073 0.58146 -6.2633
LeftToes  -7.12384e-010 -7.51861e-011 -8.34901e-011
420
root  -17.7668 38.8614 -17.3556 177.604 16.7661 174.382
RightUpLeg  22.9637 -20.8868 -24.9429
RightLeg  19.5672 -11.8129 -4.81769
RightFoot  -2.76878 -1.69939 22.1596
RightToes  -3.4386e-010 1.2921e-014 -6.02303e-014
Spine  -16.2377 -3.63693 3.94443
Spine1  23.572 -1.69023 -11.0462
HEad  10.9846 15.3684 -8.34135
LeftShoulder1  0.393206 1.87705 -21.3969
LeftArm  -7.36897 11.6879 -44.2779
LeftForeArm  9.24221 -57.6321 -17.1965
LeftHand  0.132113 2.28943 -5.94762
RightShoulder  1.67598 2.73301 21.4867
RightArm  1.36098 -1.59929 49.4138
RightForeArm  18.6039 55.6142 14.9614
RightHand  0.0628358 0.454926 1.205
LeftUpLeg  -16.1363 -1.26409 -6.37736
LeftLeg  9.04818 16.3085 4.0338
LeftFoot  -0.45912 0.604925 -6.31921
LeftToes  -7.12384e-010 -7.51861e-011 -8.34901e-011
421
root  -17.8162 39.0107 -18.529 178.022 15.5678 174.669
RightUpLeg  16.848 -16.7675 -22.7699
RightLeg  31.1594 -13.2963 -8.75482
RightFoot  3.10434 -2.24315 17.7383
RightToes  -3.4386e-010 1.2921e-014 -6.02303e-014
Spine  -16.0588 -2.43042 3.43227
Spine1  23.1415 -0.945195 -9.27785
HEad  11.4454 13.337 -8.45474
LeftShoulder1  0.319129 2.16013 -21.7601
LeftArm  -6.41157 10.9769 -44.5015
LeftForeArm  9.0905 -57.3866 -17.0332
LeftHand  0.13201 2.33231 -5.92025
RightShoulder  1.72416 2.97991 21.1475
RightArm  -1.039 -3.22083 49.1457
RightForeArm  18.773 55.8288 15.0792
RightHand  -0.0147878 -3.07045 0.101728
LeftUpLeg  -14.6977 -0.0831149 -6.52436
LeftLeg  8.63119 14.279 2.19146
LeftFoot  0.280734 0.456203 -4.49927
LeftToes  -7.12384e-010 -7.51861e-011 -8.34901e-011
422
root  -17.8446 39.1748 -19.6896 178.496 13.826 175.238
RightUpLeg  10.5077 -13.4597 -19.6897
RightLeg  41.8185 -12.6497 -12.1153
RightFoot  7.29175 -1.16419 7.39261
RightToes  -3.4386e-010 1.2921e-014 -6.02303e-014
Spine  -16.4674 -1.89971 2.25932
Spine1  22.9008 -1.05021 -6.71048
HEad  12.2247 11.8632 -8.23841
LeftShoulder1  0.296647 2.24837 -21.9745
LeftArm  -6.16791 10.9986 -44.9024
LeftForeArm  9.09987 -57.3991 -17.0412
LeftHand  0.131622 2.41113 -5.82208
RightShoulder  1.7458 2.98844 21.4766
RightArm  -1.6454 -3.11828 48.5558
RightForeArm  18.3357 55.1803 14.7211
RightHand  -0.0274974 -4.71811 -0.349464
LeftUpLeg  -13.1628 0.85034 -6.56094
LeftLeg  8.23828 11.6586 0.566841
LeftFoot  0.287295 0.0813258 -0.81594
LeftToes  -7.12384e-010 -7.51861e-011 -8.34901e-011
423
root  -17.7956 39.1403 -20.5942 179.177 12.0667 175.34
RightUpLeg  5.12049 -9.41723 -16.9839
RightLeg  48.9881 -7.24047 -9.15733
RightFoot  2.00389 -1.1011 9.50881
RightToes  -3.4386e-010 1.2921e-014 -6.02303e-014
Spine  -16.5236 -1.51779 -0.298063
Spine1  22.5392 -1.3572 -4.81007
HEad  13.4067 10.4749 -7.28581
LeftShoulder1  0.332932 2.09906 -21.4751
LeftArm  -6.19259 11.3135 -45.5638
LeftForeArm  9.15018 -57.1161 -16.8347
LeftHand  0.132313 2.44336 -5.71476
RightShoulder  1.72363 2.75672 22.2124
RightArm  -1.35852 -2.85783 47.8614
RightForeArm  18.2865 54.8339 14.5185
RightHand  -0.0278477 -4.80023 -0.385472
LeftUpLeg  -13.4712 1.98835 -6.679
LeftLeg  10.3777 8.89358 -0.615861
LeftFoot  -1.20309 -0.0634107 0.796927
LeftToes  -7.12384e-010 -7.51861e-011 -8.34901e-011
424
root  -17.6683 39.1603 -21.5324 -179.889 10.0794 175.661
RightUpLeg  -0.221533 -5.94254 -14.0609
RightLeg  53.9568 -3.44329 -5.45927
RightFoot  -1.21101 -0.857765 9.56273
RightToes  -3.4386e-010 1.2921e-014 -6.02303e-014
Spine  -17.1347 -1.21777 -2.48451
Spine1  22.0646 -1.60744 -2.92208
HEad  14.8171 8.61727 -5.95385
LeftShoulder1  0.421009 1.76284 -21.1443
LeftArm  -5.37431 10.8483 -45.6823
LeftForeArm  8.53528 -56.3496 -16.3626
LeftHand  0.137867 2.36198 -5.82721
RightShoulder  1.66026 2.38263 23.0054
RightArm  -2.24651 -3.31998 47.4319
RightForeArm  18.9131 54.9614 14.537
RightHand  -0.0277585 -4.87033 -0.0634506
LeftUpLeg  -13.4926 2.27862 -6.77029
LeftLeg  11.8067 6.71154 -0.940831
LeftFoot  -2.90227 -0.0982554 1.56929
LeftToes  -7.12384e-010 -7.51861e-011 -8.34901e-011
